<svg xmlns="http://www.w3.org/2000/svg" viewBox="0 0 64.72 83.25"><defs><style>.cls-1{fill:#222;}.cls-2{fill:#70cff0;}</style></defs><title>Zasób 5</title><g id="Warstwa_2" data-name="Warstwa 2"><g id="Warstwa_1-2" data-name="Warstwa 1"><path class="cls-1" d="M22.73.27V.93A4.17,4.17,0,0,0,21.23.6c-.69,0-1,.23-1,.7a.57.57,0,0,0,.19.45,2.38,2.38,0,0,0,.72.35l.5.17.46.16c.73.25,1.09.68,1.09,1.28a1.29,1.29,0,0,1-.55,1.1,2.48,2.48,0,0,1-1.49.41A6.85,6.85,0,0,1,19.44,5V4.2a4.39,4.39,0,0,0,1.69.45A1.64,1.64,0,0,0,22,4.43a.68.68,0,0,0,.34-.6.56.56,0,0,0-.2-.45A3.23,3.23,0,0,0,21.35,3l-.51-.19a3,3,0,0,1-1.07-.58,1.06,1.06,0,0,1-.3-.79,1.23,1.23,0,0,1,.46-1A2,2,0,0,1,21.22,0,5.54,5.54,0,0,1,22.73.27Z"/><path class="cls-1" d="M26.05,5.1,28,.15h.77l2,4.95H30l-.47-1.24H27.19L26.71,5.1Zm1.37-1.81h1.83L28.33.93Z"/><path class="cls-1" d="M33.93,5.1V.15h1.4a3.68,3.68,0,0,1,1.21.14,1.07,1.07,0,0,1,.73,1.05,1.43,1.43,0,0,1-.26.87,2.2,2.2,0,0,1-.84.64L37.9,5.1H37L35.39,3H34.7V5.1Zm.77-2.63h.4a1.58,1.58,0,0,0,1-.27.86.86,0,0,0,.37-.73.61.61,0,0,0-.28-.59,2.1,2.1,0,0,0-1-.16H34.7Z"/><path class="cls-1" d="M41.31,5.1V.15h1.62A3.67,3.67,0,0,1,44.18.3a1.24,1.24,0,0,1,.75,1.25,1.44,1.44,0,0,1-.61,1.23,2.86,2.86,0,0,1-1.68.44h-.57V5.1Zm.76-2.45h.48q1.56,0,1.56-1.08a.71.71,0,0,0-.29-.65,1.84,1.84,0,0,0-1-.2h-.77Z"/><path class="cls-1" d="M19.67,82.41v-.58H21V78H19.67v-.57h3.46V78H21.78v3.81h1.35v.58Z"/><path class="cls-1" d="M30.14,77.57v.66a4.18,4.18,0,0,0-1.5-.32q-1,0-1.05.69a.56.56,0,0,0,.2.45,2.14,2.14,0,0,0,.72.36l.49.17.47.15c.72.26,1.09.68,1.09,1.29a1.32,1.32,0,0,1-.56,1.1,2.46,2.46,0,0,1-1.49.41,7,7,0,0,1-1.67-.28V81.5a4.43,4.43,0,0,0,1.7.45,1.64,1.64,0,0,0,.91-.22.69.69,0,0,0,.34-.59.56.56,0,0,0-.21-.46,3,3,0,0,0-.82-.39l-.52-.18a3.1,3.1,0,0,1-1.06-.58,1.08,1.08,0,0,1-.3-.79,1.24,1.24,0,0,1,.46-1,2,2,0,0,1,1.28-.37A5.61,5.61,0,0,1,30.14,77.57Z"/><path class="cls-1" d="M34.08,82.41v-.58h1.35V78H34.08v-.57h3.46V78H36.2v3.81h1.34v.58Z"/><path class="cls-1" d="M41.28,82.41v-5h.77v2.43l2.09-2.43h.78l-2,2.34,2.4,2.62h-.92l-2.33-2.53v2.53Z"/><polygon class="cls-2" points="48.81 16.88 28.41 29.17 48.81 41.47 48.81 49.67 15.9 29.17 48.81 8.77 48.81 16.88"/><polygon class="cls-2" points="48.81 53.19 15.9 73.69 15.9 65.49 36.3 53.19 15.9 40.9 15.9 32.79 48.81 53.19"/><polygon class="cls-1" points="64.72 0 64.72 82.5 48.82 82.5 48.82 77.3 59.19 77.3 59.19 5.2 48.82 5.2 48.82 0 64.72 0"/><polygon class="cls-1" points="0 0 0 82.5 15.9 82.5 15.9 77.3 5.53 77.3 5.53 5.2 15.9 5.2 15.9 0 0 0"/><rect class="cls-2" x="27.95" y="82.66" width="1.04" height="0.59"/></g></g></svg>